<svg width="500" height="500" viewBox="0 0 500 500" fill="none" xmlns="http://www.w3.org/2000/svg">
<g clip-path="url(#clip0_101_2)">
<path d="M231.233 23.9386C237.661 6.49073 262.339 6.49077 268.767 23.9386L420.019 434.481C426.473 451.997 407.537 468.021 391.33 458.76L259.923 383.67C253.774 380.157 246.226 380.157 240.077 383.67L108.67 458.76C92.4629 468.021 73.5275 451.997 79.9808 434.481L231.233 23.9386Z" fill="black"/>
<path d="M134.225 448.53L240.263 389.427C246.316 386.053 253.684 386.053 259.737 389.427L365.775 448.53C383.789 458.571 376.66 486 356.038 486H143.962C123.34 486 116.212 458.571 134.225 448.53Z" fill="#F28A21"/>
</g>
<defs>
<clipPath id="clip0_101_2">
<rect width="500" height="500" fill="white"/>
</clipPath>
</defs>
</svg>
