<svg width="2269" height="427" viewBox="0 0 2269 427" fill="none" xmlns="http://www.w3.org/2000/svg">
<path d="M1983.17 421.07C1959.05 421.07 1940.27 414.744 1926.83 402.092C1913.39 389.045 1906.66 371.253 1906.66 348.717V77.0975C1906.66 54.9567 1913.19 37.5604 1926.24 24.9086C1939.68 12.2567 1958.26 5.93079 1981.98 5.93079H2065.01C2106.13 5.93079 2141.91 14.6289 2172.35 32.0252C2203.19 49.0262 2226.91 73.1438 2243.52 104.378C2260.13 135.612 2268.43 172.184 2268.43 214.093C2268.43 256.003 2260.13 292.574 2243.52 323.809C2226.91 354.647 2203.19 378.567 2172.35 395.568C2141.91 412.569 2106.13 421.07 2065.01 421.07H1983.17ZM2059.08 384.3C2111.27 384.3 2151.6 369.474 2180.06 339.821C2208.92 310.168 2223.36 268.259 2223.36 214.093C2223.36 159.928 2208.92 117.821 2180.06 87.7725C2151.2 57.7243 2110.87 42.7003 2059.08 42.7003H1982.58C1973.09 42.7003 1965.38 45.8632 1959.45 52.1891C1953.91 58.5151 1951.14 66.8178 1951.14 77.0975V349.903C1951.14 360.183 1953.91 368.485 1959.45 374.811C1965.38 381.137 1973.09 384.3 1982.58 384.3H2059.08Z" fill="white"/>
<path d="M1494.17 427C1487.45 427 1482.11 425.023 1478.16 421.069C1474.2 416.72 1472.23 410.79 1472.23 403.278V171.393C1472.23 117.623 1487.25 75.7134 1517.3 45.6653C1547.74 15.2218 1589.85 0 1643.62 0C1697 0 1738.91 15.2218 1769.35 45.6653C1799.79 76.1088 1815.01 118.018 1815.01 171.393V403.278C1815.01 410.79 1813.04 416.72 1809.08 421.069C1805.13 425.023 1799.59 427 1792.48 427C1785.76 427 1780.22 425.023 1775.87 421.069C1771.92 416.72 1769.94 410.79 1769.94 403.278V269.84H1516.71V403.278C1516.71 410.79 1514.73 416.72 1510.78 421.069C1506.82 425.023 1501.29 427 1494.17 427ZM1769.94 233.071V169.614C1769.94 127.309 1759.07 94.8889 1737.32 72.3528C1715.58 49.4213 1684.34 37.9556 1643.62 37.9556C1602.5 37.9556 1571.07 49.2236 1549.33 71.7597C1527.58 94.2958 1516.71 126.914 1516.71 169.614V233.071H1769.94Z" fill="white"/>
<path d="M912.699 427C905.977 427 900.64 425.023 896.686 421.069C892.732 416.72 890.755 410.79 890.755 403.278V135.217C890.755 93.3074 902.617 60.294 926.339 36.1764C950.061 12.0588 982.679 0 1024.19 0C1048.31 0 1070.45 6.32593 1090.62 18.9778C1111.17 31.2343 1126.59 47.6421 1136.87 68.2014C1147.15 47.2468 1162.18 30.6412 1181.95 18.3847C1202.11 6.12824 1224.65 0 1249.55 0C1291.07 0 1323.69 12.0588 1347.41 36.1764C1371.13 59.8986 1382.99 92.9121 1382.99 135.217V403.278C1382.99 410.79 1380.82 416.72 1376.47 421.069C1372.51 425.023 1367.18 427 1360.46 427C1353.34 427 1347.8 425.023 1343.85 421.069C1340.29 416.72 1338.51 410.79 1338.51 403.278V135.217C1338.51 103.982 1331.4 80.0625 1317.16 63.4569C1303.32 46.8514 1280.39 38.5486 1248.37 38.5486C1220.3 38.5486 1198.35 47.2468 1182.54 64.6431C1166.72 81.644 1158.82 105.169 1158.82 135.217V403.278C1158.82 410.79 1156.84 416.72 1152.89 421.069C1148.93 425.023 1143.59 427 1136.87 427C1130.15 427 1124.81 425.023 1120.86 421.069C1117.3 416.72 1115.52 410.79 1115.52 403.278V135.217C1115.52 105.959 1107.22 82.6324 1090.62 65.2361C1074.01 47.4444 1052.26 38.5486 1025.38 38.5486C993.354 38.5486 970.225 46.8514 955.992 63.4569C942.154 80.0625 935.235 103.982 935.235 135.217V403.278C935.235 410.79 933.258 416.72 929.304 421.069C925.35 425.023 919.815 427 912.699 427Z" fill="white"/>
<path d="M617.996 427C578.064 427 542.085 418.302 510.06 400.906C478.035 383.114 452.731 358.008 434.149 325.588C415.962 293.167 406.869 255.805 406.869 213.5C406.869 170.8 415.962 133.438 434.149 101.412C452.731 68.9921 478.035 44.0838 510.06 26.6875C542.085 8.89584 578.064 0 617.996 0C657.929 0 693.907 8.89584 725.932 26.6875C757.957 44.0838 783.063 68.9921 801.251 101.412C819.833 133.438 829.124 170.8 829.124 213.5C829.124 255.805 819.833 293.167 801.251 325.588C783.063 358.008 757.957 383.114 725.932 400.906C693.907 418.302 657.929 427 617.996 427ZM617.996 389.044C650.021 389.044 678.488 382.125 703.396 368.288C728.7 354.45 748.469 334.483 762.702 308.389C777.331 281.899 784.645 250.269 784.645 213.5C784.645 176.335 777.133 144.508 762.109 118.018C747.48 91.5283 727.316 71.562 701.617 58.1194C676.313 44.6769 648.044 37.9556 616.81 37.9556C585.181 37.9556 556.714 44.8745 531.41 58.7125C506.502 72.5505 486.931 92.7144 472.698 119.204C458.464 145.694 451.348 177.126 451.348 213.5C451.348 250.269 458.464 281.899 472.698 308.389C487.326 334.483 507.095 354.45 532.003 368.288C557.307 382.125 585.971 389.044 617.996 389.044Z" fill="white"/>
<path d="M21.9431 427C15.2218 427 9.88426 425.023 5.93056 421.069C1.97685 416.72 0 410.79 0 403.278V161.311C0 128.495 6.91898 100.029 20.7569 75.9111C34.9903 51.3981 55.1542 32.618 81.2486 19.5708C107.343 6.52361 137.984 0 173.172 0C208.36 0 238.804 6.52361 264.503 19.5708C290.597 32.618 310.563 51.3981 324.401 75.9111C338.635 100.029 345.751 128.495 345.751 161.311V403.278C345.751 410.79 343.775 416.72 339.821 421.069C336.262 425.023 330.925 427 323.808 427C317.087 427 311.552 425.023 307.203 421.069C303.249 416.72 301.272 410.79 301.272 403.278V159.532C301.272 121.181 290.004 91.3306 267.468 69.9806C244.932 48.6306 213.5 37.9556 173.172 37.9556C133.635 37.9556 102.203 48.8282 78.8764 70.5736C55.9449 92.319 44.4792 121.972 44.4792 159.532V403.278C44.4792 410.79 42.5023 416.72 38.5486 421.069C34.5949 425.023 29.0597 427 21.9431 427Z" fill="white"/>
</svg>
